<svg width="36" height="36" viewBox="0 0 36 36" fill="none" xmlns="http://www.w3.org/2000/svg">
    <g id="logo">
        <path d="M17.9999 0C22.9707 0 27.471 2.01471 30.7283 5.2722C34.0806 8.62396 36 13.2722 36 17.9998C36 22.9707 33.9858 27.4703 30.7283 30.7276C27.471 33.9849 22.9707 36 17.9999 36C13.0297 36 8.52939 33.9849 5.272 30.7276C2.0146 27.4703 0 22.9707 0 17.9998C0 8.08225 8.08414 0 17.9999 0ZM15.5361 34.5984C15.9296 33.623 16.1368 32.4978 16.2061 31.3629C16.297 29.8694 16.149 28.3685 15.8711 27.1652C15.6007 25.9935 14.7402 25.09 13.5787 24.2794C10.2549 26.544 5.70273 26.3106 2.54235 24.5361C3.39129 26.542 4.61916 28.3472 6.13615 29.8641C8.62345 32.3518 11.8889 34.0618 15.5362 34.5984H15.5361ZM1.84059 22.5305C4.87601 24.7293 9.08983 25.4357 12.4096 23.5403C11.8084 23.1906 11.164 22.8482 10.5028 22.4969C7.70736 21.0122 3.42859 18.7029 1.55119 14.6739C1.33513 15.7491 1.22167 16.8612 1.22167 17.9998C1.22167 19.5701 1.43697 21.0894 1.84052 22.5305H1.84059ZM2.11472 12.5851C2.50712 15.3411 5.83766 18.1579 7.55123 19.3365C7.96896 18.7298 8.34217 17.6645 8.52196 16.3422C8.69838 15.0501 8.67981 13.5388 8.32958 11.995C7.12972 10.6058 6.06287 9.00239 5.36902 6.95568C3.94333 8.58474 2.82776 10.4917 2.11465 12.5851L2.11472 12.5851ZM6.35337 5.92235C7.39717 9.5783 9.76118 11.8207 11.9783 13.923C12.5258 14.4423 13.0645 14.9536 13.5763 15.4766C13.943 11.6966 12.5918 6.02728 9.68769 3.42214C8.4727 4.1164 7.35355 4.95783 6.35337 5.92235ZM10.8144 2.83447C14.0841 6.18175 15.457 12.1859 14.6717 16.6796C15.3686 17.5155 15.9701 18.4121 16.4107 19.4386C17.1163 21.0859 17.6808 23.1168 17.9831 25.6508C17.9889 25.5476 17.9945 25.4454 18.0006 25.3442C18.1647 22.6659 18.5174 20.545 19.0502 18.8415C19.4592 15.0413 18.5882 13.418 17.7625 11.8812C16.9027 10.2799 15.1091 6.24512 16.3292 1.30401C14.3722 1.49722 12.515 2.02648 10.8144 2.8344V2.83447ZM17.4645 1.22998C16.3375 5.62717 18.0894 9.8529 18.8616 11.2903C19.4634 12.4106 20.088 13.5731 20.3155 15.43C22.0295 12.075 22.818 5.31878 21.1186 1.51078C20.108 1.32087 19.066 1.22131 17.9999 1.22131C17.821 1.22131 17.6425 1.22454 17.4644 1.22998H17.4645ZM22.39 1.80141C23.5222 4.92129 23.3178 9.21149 22.9426 11.1263C23.909 10.6369 25.1612 9.72733 26.3029 8.67653C27.4992 7.57425 28.5467 6.33959 28.9733 5.30633C27.0962 3.68292 24.8554 2.46808 22.39 1.80141ZM29.927 6.19909C29.3468 7.31802 28.3063 8.52811 27.1477 9.5944C25.5927 11.0262 23.7865 12.2306 22.5872 12.6178C22.1817 14.0777 21.64 15.4699 21.1417 16.7481C20.8107 17.5992 20.4998 18.3973 20.2611 19.1496H20.2588C19.747 20.7616 19.4063 22.8035 19.2467 25.4174C19.2177 25.886 19.1948 26.3722 19.1777 26.8771C19.2758 26.46 19.3914 26.0764 19.5258 25.737L19.44 25.7024C20.6249 22.7966 21.7439 20.176 23.7448 18.006C23.9564 17.7766 24.1776 17.5529 24.4091 17.335C26.3599 15.3189 28.1923 13.2722 29.5177 11.2022C30.271 10.0248 30.8596 8.84104 31.2092 7.65262C30.8097 7.14352 30.3818 6.65844 29.927 6.19909ZM32.1015 8.90317C31.7179 9.90533 31.1954 10.8959 30.5681 11.8761C29.9705 12.8092 29.2779 13.7341 28.5218 14.6504C29.7754 14.0941 32.133 13.1694 33.9372 12.7392C33.487 11.375 32.8668 10.0879 32.1015 8.90317ZM34.2836 13.9379C30.0516 14.8719 26.4695 16.8923 24.6633 18.8508C23.4766 20.1378 22.6104 21.6318 21.842 23.2735C23.1143 22.4858 24.4539 22.1009 25.8243 21.707C28.0645 21.0635 32.7992 18.9887 34.6071 15.5897C34.5266 15.0297 34.4178 14.4788 34.2836 13.9379ZM34.7755 17.665C32.8377 20.1542 29.3532 21.9062 27.674 22.4554C28.3391 22.6189 28.9734 22.8326 29.5783 23.0826C30.9281 23.641 32.1259 24.3749 33.1975 25.1195C34.2121 22.9588 34.7787 20.5457 34.7787 17.9998C34.7787 17.8882 34.7776 17.7761 34.7755 17.6651V17.665ZM32.6207 26.2378C31.5743 25.5025 30.4067 24.7739 29.1044 24.2359C27.7851 23.6904 26.318 23.3349 24.6823 23.3582C23.4181 23.7811 22.211 24.3426 21.1289 25.4252L21.1281 25.4235C20.6076 25.9498 20.2697 27.2762 20.1145 28.9317C19.9515 30.672 20.0094 32.7321 20.2834 34.6239C24.0038 34.1179 27.3361 32.393 29.865 29.8641C30.9389 28.79 31.8684 27.5704 32.6206 26.2378H32.6207ZM9.75829 16.5082C9.55717 17.983 9.1148 19.2244 8.59799 20.0094C9.42003 20.506 10.2668 20.9561 11.0894 21.3931C13.5566 22.7033 15.8159 23.904 16.759 25.9306C16.4765 23.4625 15.9378 21.5025 15.2628 19.9276C14.417 17.9555 12.8106 16.4319 11.1185 14.8268C10.6914 14.4222 10.2598 14.0121 9.83157 13.5886C9.91703 14.624 9.88049 15.614 9.75822 16.5082H9.75829Z"
              fill="white"/>
    </g>
    <g id="settings">
        <path d="M12.086 15.1562C12.2266 14.8593 12.3907 14.5781 12.5782 14.3047L12.547 12.2734C12.547 12.0859 12.6251 11.9062 12.7735 11.7812C13.5001 11.1718 14.3282 10.6797 15.2423 10.3515C15.422 10.289 15.6173 10.3047 15.7735 10.4062L17.5157 11.4531C17.8438 11.4297 18.172 11.4297 18.5001 11.4531L20.2423 10.4062C20.4063 10.3125 20.6016 10.289 20.7813 10.3515C21.672 10.6718 22.5079 11.1484 23.2501 11.7734C23.3907 11.8906 23.4766 12.0781 23.4688 12.2656L23.4376 14.2968C23.6251 14.5703 23.7891 14.8515 23.9298 15.1484L25.7032 16.1328C25.8673 16.2265 25.9845 16.3828 26.0157 16.5703C26.1798 17.5 26.1876 18.4687 26.0157 19.414C25.9845 19.6015 25.8673 19.7578 25.7032 19.8515L23.9298 20.8359C23.7891 21.1328 23.6251 21.414 23.4376 21.6875L23.4688 23.7187C23.4688 23.9062 23.3907 24.0859 23.2423 24.2109C22.5157 24.8203 21.6876 25.3125 20.7735 25.6406C20.5938 25.7031 20.3985 25.6875 20.2423 25.5859L18.5001 24.539C18.172 24.5625 17.8438 24.5625 17.5157 24.539L15.7735 25.5859C15.6095 25.6797 15.4141 25.7031 15.2345 25.6406C14.3438 25.3203 13.5079 24.8437 12.7657 24.2187C12.6251 24.1015 12.5391 23.914 12.547 23.7265L12.5782 21.6953C12.3907 21.4218 12.2266 21.1406 12.086 20.8437L10.3126 19.8593C10.1485 19.7656 10.0313 19.6093 10.0001 19.4218C9.83602 18.4922 9.8282 17.5234 10.0001 16.5781C10.0313 16.3906 10.1485 16.2343 10.3126 16.1406L12.086 15.1562Z" stroke="white" stroke-opacity="0.95" stroke-width="1.5" stroke-miterlimit="10" stroke-linecap="round" stroke-linejoin="round"/>
        <path d="M18 21.75C20.0711 21.75 21.75 20.0711 21.75 18C21.75 15.9289 20.0711 14.25 18 14.25C15.9289 14.25 14.25 15.9289 14.25 18C14.25 20.0711 15.9289 21.75 18 21.75Z" stroke="white" stroke-opacity="0.95" stroke-width="1.5" stroke-miterlimit="10" stroke-linecap="round" stroke-linejoin="round"/>
    </g>
    <g id="company">
        <path d="M16.8755 5.625H3.12549C2.78031 5.625 2.50049 5.90482 2.50049 6.25V16.25C2.50049 16.5952 2.78031 16.875 3.12549 16.875H16.8755C17.2207 16.875 17.5005 16.5952 17.5005 16.25V6.25C17.5005 5.90482 17.2207 5.625 16.8755 5.625Z" stroke="black" stroke-width="1.2" stroke-linecap="round" stroke-linejoin="round"/>
        <path d="M13.125 5.625V4.375C13.125 4.04348 12.9933 3.72554 12.7589 3.49112C12.5245 3.2567 12.2065 3.125 11.875 3.125H8.125C7.79348 3.125 7.47554 3.2567 7.24112 3.49112C7.0067 3.72554 6.875 4.04348 6.875 4.375V5.625" stroke="black" stroke-width="1.2" stroke-linecap="round" stroke-linejoin="round"/>
        <path d="M17.5006 9.86792C15.2211 11.1867 12.6334 11.8792 9.99998 11.875C7.36696 11.8792 4.77968 11.1869 2.50049 9.86858" stroke="black" stroke-width="1.2" stroke-linecap="round" stroke-linejoin="round"/>
        <path d="M9.0625 9.375H10.9375" stroke="black" stroke-linecap="round" stroke-linejoin="round"/>
    </g>
    <g id="menuButton">
        <path d="M24.8755 13.625H11.1255C10.7803 13.625 10.5005 13.9048 10.5005 14.25V24.25C10.5005 24.5952 10.7803 24.875 11.1255 24.875H24.8755C25.2207 24.875 25.5005 24.5952 25.5005 24.25V14.25C25.5005 13.9048 25.2207 13.625 24.8755 13.625Z" stroke="white" stroke-width="1.5" stroke-linecap="round" stroke-linejoin="round"/>
        <path d="M21.125 13.625V12.375C21.125 12.0435 20.9933 11.7255 20.7589 11.4911C20.5245 11.2567 20.2065 11.125 19.875 11.125H16.125C15.7935 11.125 15.4755 11.2567 15.2411 11.4911C15.0067 11.7255 14.875 12.0435 14.875 12.375V13.625" stroke="white" stroke-width="1.5" stroke-linecap="round" stroke-linejoin="round"/>
        <path d="M25.5006 17.8679C23.2211 19.1867 20.6334 19.8792 18 19.875C15.367 19.8792 12.7797 19.1869 10.5005 17.8686" stroke="white" stroke-linecap="round" stroke-linejoin="round"/>
        <path d="M17.0625 17.375H18.9375" stroke="white" stroke-linecap="round" stroke-linejoin="round"/>
    </g>
    <g id="singOut">
        <path d="M21.5946 14.7188L24.875 18L21.5946 21.2812" stroke="white" stroke-opacity="0.95" stroke-width="1.5" stroke-linecap="round" stroke-linejoin="round"/>
        <path d="M16.125 18H24.8727" stroke="white" stroke-opacity="0.95" stroke-width="1.5" stroke-linecap="round" stroke-linejoin="round"/>
        <path d="M16.125 24.875H11.75C11.5842 24.875 11.4253 24.8092 11.3081 24.6919C11.1908 24.5747 11.125 24.4158 11.125 24.25V11.75C11.125 11.5842 11.1908 11.4253 11.3081 11.3081C11.4253 11.1908 11.5842 11.125 11.75 11.125H16.125" stroke="white" stroke-opacity="0.95" stroke-width="1.5" stroke-linecap="round" stroke-linejoin="round"/>
    </g>
    <g id="exit">
        <path d="M21.5946 14.7188L24.875 18L21.5946 21.2812" stroke="white" stroke-opacity="0.95" stroke-width="1.5" stroke-linecap="round" stroke-linejoin="round"/>
        <path d="M16.125 18H24.8727" stroke="white" stroke-opacity="0.95" stroke-width="1.5" stroke-linecap="round" stroke-linejoin="round"/>
        <path d="M16.125 24.875H11.75C11.5842 24.875 11.4253 24.8092 11.3081 24.6919C11.1908 24.5747 11.125 24.4158 11.125 24.25V11.75C11.125 11.5842 11.1908 11.4253 11.3081 11.3081C11.4253 11.1908 11.5842 11.125 11.75 11.125H16.125" stroke="white" stroke-opacity="0.95" stroke-width="1.5" stroke-linecap="round" stroke-linejoin="round"/>
    </g>
    <g id="Contractor">
        <path d="M9.33326 3.70663C10.5838 4.00724 11.697 4.71962 12.4938 5.72925C13.2906 6.73888 13.7248 7.98711 13.7266 9.2733V10.5466M2.27326 10.5466V9.2733C2.27148 7.9862 2.70435 6.7362 3.50174 5.72585C4.29913 4.71551 5.41431 4.004 6.66659 3.70663" stroke="black" stroke-width="1.5" stroke-miterlimit="10"/>
        <path d="M13.7267 10.5467H2.27333C1.57009 10.5467 1 11.1168 1 11.82C1 12.5233 1.57009 13.0933 2.27333 13.0933H13.7267C14.4299 13.0933 15 12.5233 15 11.82C15 11.1168 14.4299 10.5467 13.7267 10.5467Z" stroke="black" stroke-width="1.5" stroke-miterlimit="10"/>
        <path d="M9.90672 10.5466H6.09338L6.66588 3.64056C6.70026 3.22577 7.04694 2.90665 7.46314 2.90665H8.53696C8.95316 2.90665 9.29984 3.22577 9.33422 3.64056L9.90672 10.5466Z" stroke="black" stroke-width="1.5" stroke-miterlimit="10"/>
    </g>
    <g id="Account">
        <path d="M10.88 1.9522C11.9468 2.50663 12.68 3.6579 12.68 4.98824C12.68 6.31858 11.9468 7.46985 10.88 8.02428M12.32 11.9653C13.4082 12.4803 14.3882 13.3195 15.2 14.4M0.799988 14.4C2.20146 12.5347 4.1042 11.3882 6.19999 11.3882C8.29578 11.3882 10.1985 12.5347 11.6 14.4M9.43999 4.98824C9.43999 6.85951 7.98939 8.37648 6.19999 8.37648C4.41058 8.37648 2.95999 6.85951 2.95999 4.98824C2.95999 3.11697 4.41058 1.60001 6.19999 1.60001C7.98939 1.60001 9.43999 3.11697 9.43999 4.98824Z" stroke="black" stroke-width="1.5" stroke-linecap="round" stroke-linejoin="round"/>
    </g>
    <g id="Edit">
        <path d="M13.2411 22.875H9.75C9.58424 22.875 9.42527 22.8092 9.30806 22.6919C9.19085 22.5747 9.125 22.4158 9.125 22.25V18.7589C9.125 18.6768 9.14117 18.5955 9.17258 18.5197C9.20398 18.4439 9.25002 18.375 9.30806 18.3169L18.6831 8.94195C18.8003 8.82474 18.9592 8.75889 19.125 8.75889C19.2908 8.75889 19.4497 8.82474 19.5669 8.94195L23.0581 12.4331C23.1753 12.5503 23.2411 12.7092 23.2411 12.875C23.2411 13.0408 23.1753 13.1997 23.0581 13.3169L13.6831 22.6919C13.625 22.75 13.5561 22.796 13.4803 22.8274C13.4045 22.8588 13.3232 22.875 13.2411 22.875Z" stroke="#3B3B3B" stroke-width="1.5" stroke-linecap="round" stroke-linejoin="round"/>
        <path d="M16.625 11L21 15.375" stroke="#3B3B3B" stroke-width="1.5" stroke-linecap="round" stroke-linejoin="round"/>
        <path d="M13.4601 22.8351L9.16479 18.5397" stroke="#3B3B3B" stroke-width="1.5" stroke-linecap="round" stroke-linejoin="round"/>
    </g>
    <g id="EditFlattened">
        <path d="M5.79289 13.5H3C2.86739 13.5 2.74021 13.4473 2.64645 13.3536C2.55268 13.2598 2.5 13.1326 2.5 13V10.2071C2.5 10.1414 2.51293 10.0764 2.53806 10.0158C2.56319 9.9551 2.60002 9.89998 2.64645 9.85355L10.1464 2.35355C10.2402 2.25979 10.3674 2.20711 10.5 2.20711C10.6326 2.20711 10.7598 2.25979 10.8536 2.35355L13.6464 5.14645C13.7402 5.24022 13.7929 5.36739 13.7929 5.5C13.7929 5.63261 13.7402 5.75979 13.6464 5.85355L6.14645 13.3536C6.10002 13.4 6.0449 13.4368 5.98424 13.4619C5.92357 13.4871 5.85855 13.5 5.79289 13.5Z" stroke="#3B3B3B" stroke-linecap="round" stroke-linejoin="round"/>
        <path d="M8.5 4L12 7.5" stroke="#3B3B3B" stroke-linecap="round" stroke-linejoin="round"/>
        <path d="M5.96799 13.4681L2.53174 10.0318" stroke="#3B3B3B" stroke-linecap="round" stroke-linejoin="round"/>
    </g>
    <g id="Share">
        <path d="M7.15833 11.2583L12.85 14.575M12.8417 5.42496L7.15833 8.74163M17.5 4.16663C17.5 5.54734 16.3807 6.66663 15 6.66663C13.6193 6.66663 12.5 5.54734 12.5 4.16663C12.5 2.78591 13.6193 1.66663 15 1.66663C16.3807 1.66663 17.5 2.78591 17.5 4.16663ZM7.5 9.99996C7.5 11.3807 6.38071 12.5 5 12.5C3.61929 12.5 2.5 11.3807 2.5 9.99996C2.5 8.61925 3.61929 7.49996 5 7.49996C6.38071 7.49996 7.5 8.61925 7.5 9.99996ZM17.5 15.8333C17.5 17.214 16.3807 18.3333 15 18.3333C13.6193 18.3333 12.5 17.214 12.5 15.8333C12.5 14.4526 13.6193 13.3333 15 13.3333C16.3807 13.3333 17.5 14.4526 17.5 15.8333Z" stroke="white" stroke-width="1.5" stroke-linecap="round" stroke-linejoin="round"/>
    </g>
    <g id="Trash">
        <path d="M16.8748 4.375L3.12476 4.37501" stroke="white" stroke-width="1.5" stroke-linecap="round" stroke-linejoin="round"/>
        <path d="M8.125 8.125V13.125" stroke="white" stroke-width="1.5" stroke-linecap="round" stroke-linejoin="round"/>
        <path d="M11.875 8.125V13.125" stroke="white" stroke-width="1.5" stroke-linecap="round" stroke-linejoin="round"/>
        <path d="M15.625 4.375V16.25C15.625 16.4158 15.5592 16.5747 15.4419 16.6919C15.3247 16.8092 15.1658 16.875 15 16.875H5C4.83424 16.875 4.67527 16.8092 4.55806 16.6919C4.44085 16.5747 4.375 16.4158 4.375 16.25V4.375" stroke="white" stroke-width="1.5" stroke-linecap="round" stroke-linejoin="round"/>
        <path d="M13.125 4.375V3.125C13.125 2.79348 12.9933 2.47554 12.7589 2.24112C12.5245 2.0067 12.2065 1.875 11.875 1.875H8.125C7.79348 1.875 7.47554 2.0067 7.24112 2.24112C7.0067 2.47554 6.875 2.79348 6.875 3.125V4.375" stroke="white" stroke-width="1.5" stroke-linecap="round" stroke-linejoin="round"/>
    </g>
    <g id="TrashRed">
        <path d="M22.8748 10.375L9.12476 10.375" stroke="#D72323" stroke-width="1.5" stroke-linecap="round" stroke-linejoin="round"/>
        <path d="M14.125 14.125V19.125" stroke="#D72323" stroke-width="1.5" stroke-linecap="round" stroke-linejoin="round"/>
        <path d="M17.875 14.125V19.125" stroke="#D72323" stroke-width="1.5" stroke-linecap="round" stroke-linejoin="round"/>
        <path d="M21.625 10.375V22.25C21.625 22.4158 21.5592 22.5747 21.4419 22.6919C21.3247 22.8092 21.1658 22.875 21 22.875H11C10.8342 22.875 10.6753 22.8092 10.5581 22.6919C10.4408 22.5747 10.375 22.4158 10.375 22.25V10.375" stroke="#D72323" stroke-width="1.5" stroke-linecap="round" stroke-linejoin="round"/>
        <path d="M19.125 10.375V9.125C19.125 8.79348 18.9933 8.47554 18.7589 8.24112C18.5245 8.0067 18.2065 7.875 17.875 7.875H14.125C13.7935 7.875 13.4755 8.0067 13.2411 8.24112C13.0067 8.47554 12.875 8.79348 12.875 9.125V10.375" stroke="#D72323" stroke-width="1.5" stroke-linecap="round" stroke-linejoin="round"/>
    </g>
    <g id="Chevron">
        <g clip-path="url(#clip0_8740_2174)">
            <path d="M13 4L7 10L13 16" stroke="black" stroke-width="1.5" stroke-linecap="round" stroke-linejoin="round"/>
        </g>
        <defs>
            <clipPath id="clip0_8740_2174">
                <rect width="20" height="20" fill="white"/>
            </clipPath>
        </defs>
    </g>
    <g id="Inventory">
        <path d="M10 9C11.1046 9 12 8.10457 12 7C12 5.89543 11.1046 5 10 5C8.89543 5 8 5.89543 8 7C8 8.10457 8.89543 9 10 9Z" stroke="white" stroke-width="1.5" stroke-linecap="round" stroke-linejoin="round"/>
        <path d="M15 7C15 11.5 10 15 10 15C10 15 5 11.5 5 7C5 5.67392 5.52678 4.40215 6.46447 3.46447C7.40215 2.52678 8.67392 2 10 2C11.3261 2 12.5979 2.52678 13.5355 3.46447C14.4732 4.40215 15 5.67392 15 7V7Z" stroke="white" stroke-width="1.5" stroke-linecap="round" stroke-linejoin="round"/>
        <line x1="5.75" y1="17.25" x2="14.25" y2="17.25" stroke="white" stroke-width="1.5" stroke-linecap="round"/>
    </g>
    <g id="Add Photo">
        <path d="M14.667 7.66665V9.73331C14.667 11.2268 14.667 11.9735 14.3763 12.544C14.1206 13.0457 13.7127 13.4537 13.2109 13.7093C12.6405 14 11.8938 14 10.4003 14H5.60029C4.10681 14 3.36008 14 2.78964 13.7093C2.28788 13.4537 1.87993 13.0457 1.62427 12.544C1.33362 11.9735 1.33362 11.2268 1.33362 9.73331V6.26665C1.33362 4.77317 1.33362 4.02644 1.62427 3.45601C1.87993 2.95424 2.28788 2.54629 2.78964 2.29063C3.36008 1.99998 4.10681 1.99998 5.60029 1.99998H8.33362M12.667 5.33331V1.33331M10.667 3.33331H14.667M10.667 7.99998C10.667 9.47274 9.47305 10.6666 8.00029 10.6666C6.52753 10.6666 5.33362 9.47274 5.33362 7.99998C5.33362 6.52722 6.52753 5.33331 8.00029 5.33331C9.47305 5.33331 10.667 6.52722 10.667 7.99998Z" stroke="#3B3B3B" stroke-linecap="round" stroke-linejoin="round"/>
    </g>
    <g id="X">
        <path d="M15.625 4.375L4.375 15.625" stroke="black" stroke-width="1.5" stroke-linecap="round" stroke-linejoin="round"/>
        <path d="M15.625 15.625L4.375 4.375" stroke="black" stroke-width="1.5" stroke-linecap="round" stroke-linejoin="round"/>
    </g>
    <g id="Check">
        <path d="M16.875 5.62537L8.125 14.375L3.75 10.0004" stroke="black" stroke-width="1.5" stroke-linecap="round" stroke-linejoin="round"/>
    </g>
    <g id="Deceased">
        <path d="M17.0625 23.625C20.6869 23.625 23.625 20.6869 23.625 17.0625C23.625 13.4381 20.6869 10.5 17.0625 10.5C13.4381 10.5 10.5 13.4381 10.5 17.0625C10.5 20.6869 13.4381 23.625 17.0625 23.625Z" stroke="white" stroke-width="1.5" stroke-linecap="round" stroke-linejoin="round"/>
        <path d="M21.7026 21.7032L25.4996 25.5001" stroke="white" stroke-width="1.5" stroke-linecap="round" stroke-linejoin="round"/>
    </g>
    <g>
        <g filter="url(#filter0_d_16630_73)">
            <g clip-path="url(#clip0_16630_73)">
                <path d="M27.4998 14.5L16.4998 14.5" stroke="white" stroke-linecap="round" stroke-linejoin="round"/>
                <path d="M20.5 17.5V21.5" stroke="white" stroke-linecap="round" stroke-linejoin="round"/>
                <path d="M23.5 17.5V21.5" stroke="white" stroke-linecap="round" stroke-linejoin="round"/>
                <path d="M26.5 14.5V24C26.5 24.1326 26.4473 24.2598 26.3536 24.3536C26.2598 24.4473 26.1326 24.5 26 24.5H18C17.8674 24.5 17.7402 24.4473 17.6464 24.3536C17.5527 24.2598 17.5 24.1326 17.5 24V14.5" stroke="white" stroke-linecap="round" stroke-linejoin="round"/>
                <path d="M24.5 14.5V13.5C24.5 13.2348 24.3946 12.9804 24.2071 12.7929C24.0196 12.6054 23.7652 12.5 23.5 12.5H20.5C20.2348 12.5 19.9804 12.6054 19.7929 12.7929C19.6054 12.9804 19.5 13.2348 19.5 13.5V14.5" stroke="white" stroke-linecap="round" stroke-linejoin="round"/>
                <rect x="8" y="5" width="28" height="28" fill="#3B3B3B"/>
            </g>
        </g>
  <g id="DeletePhoto">
      <path d="M13.4998 3.5L2.49976 3.50001" stroke="white" stroke-linecap="round" stroke-linejoin="round"/>
      <path d="M6.5 6.5V10.5" stroke="white" stroke-linecap="round" stroke-linejoin="round"/>
      <path d="M9.5 6.5V10.5" stroke="white" stroke-linecap="round" stroke-linejoin="round"/>
      <path d="M12.5 3.5V13C12.5 13.1326 12.4473 13.2598 12.3536 13.3536C12.2598 13.4473 12.1326 13.5 12 13.5H4C3.86739 13.5 3.74021 13.4473 3.64645 13.3536C3.55268 13.2598 3.5 13.1326 3.5 13V3.5" stroke="white" stroke-linecap="round" stroke-linejoin="round"/>
      <path d="M10.5 3.5V2.5C10.5 2.23478 10.3946 1.98043 10.2071 1.79289C10.0196 1.60536 9.76522 1.5 9.5 1.5H6.5C6.23478 1.5 5.98043 1.60536 5.79289 1.79289C5.60536 1.98043 5.5 2.23478 5.5 2.5V3.5" stroke="white" stroke-linecap="round" stroke-linejoin="round"/>
  </g>
    </g>
    <g id='Arrow'>
    <g opacity="0.8">
        <path d="M5 7.5L10 12.5L15 7.5" stroke="black" stroke-width="1.5" stroke-linecap="round" stroke-linejoin="round"/>
    </g>
    </g>
</svg>